<?xml version="1.0" encoding="utf-8"?>
<!-- Generator: Adobe Illustrator 25.4.1, SVG Export Plug-In . SVG Version: 6.00 Build 0)  -->
<svg version="1.1" id="Layer_1" xmlns="http://www.w3.org/2000/svg" xmlns:xlink="http://www.w3.org/1999/xlink" x="0px" y="0px"
	 viewBox="0 0 1152 333" style="enable-background:new 0 0 1152 333;" xml:space="preserve">
<style type="text/css">
	.st0{fill:#FFFFFF;}
</style>
<g>
	<path class="st0" d="M358.49,97.44l-46.94,117.67h20.84l9.27-23.55h49.73l9.11,23.55h21.33L374.98,97.44H358.49z M348.89,172.77
		l17.64-45.05l17.48,45.05H348.89z"/>
	<path class="st0" d="M528.51,131.25c-5.64,0-10.83,1.3-15.59,3.9c-4.76,2.6-8.29,6.12-10.59,10.54
		c-4.87-9.63-13.35-14.44-25.44-14.44c-4.87,0-9.56,1.05-14.07,3.16c-4.51,2.11-8.16,5.49-10.95,10.13v-11.57h-18.63v82.14h18.63
		v-46.04c0-6.56,1.79-11.51,5.37-14.85s7.89-5.01,12.92-5.01c5.58,0,9.98,1.76,13.21,5.29c3.23,3.53,4.84,8.38,4.84,14.56v46.04
		h18.79v-46.04c0-6.56,1.78-11.51,5.33-14.85c3.56-3.34,7.88-5.01,12.97-5.01c5.52,0,9.87,1.76,13.05,5.29
		c3.17,3.53,4.76,8.38,4.76,14.56v46.04h19.04v-50.22c0-10.23-3.1-18.4-9.31-24.5C546.63,134.3,538.52,131.25,528.51,131.25z"/>
	<path class="st0" d="M648.08,136.99c-5.99-3.83-12.57-5.74-19.74-5.74c-6.56,0-12.34,1.42-17.31,4.27
		c-4.98,2.85-8.98,6.92-11.98,12.23v-14.77h-18.63v110.86h18.63v-43.49c3.01,5.25,7,9.3,11.98,12.14
		c4.98,2.85,10.75,4.27,17.31,4.27c10.89,0,20.13-4.15,27.74-12.43c7.6-8.29,11.4-18.37,11.4-30.24c0-7.77-1.74-14.93-5.21-21.5
		C658.8,146.02,654.07,140.82,648.08,136.99z M641.88,191.68c-4.81,4.84-10.69,7.26-17.64,7.26c-7.22,0-13.23-2.38-18.01-7.14
		c-4.79-4.76-7.18-10.67-7.18-17.73c0-7.17,2.39-13.13,7.18-17.89c4.79-4.76,10.79-7.14,18.01-7.14c6.95,0,12.83,2.42,17.64,7.26
		c4.82,4.84,7.22,10.76,7.22,17.77C649.11,180.98,646.7,186.84,641.88,191.68z"/>
	<rect x="682.26" y="97.44" class="st0" width="18.63" height="117.67"/>
	<rect x="718.98" y="132.97" class="st0" width="18.63" height="82.14"/>
	<path class="st0" d="M728.42,94.81c-3.28,0-6.1,1.18-8.45,3.53c-2.35,2.35-3.53,5.14-3.53,8.37c0,3.34,1.17,6.18,3.53,8.54
		c2.35,2.35,5.17,3.53,8.45,3.53c3.28,0,6.12-1.18,8.5-3.53c2.38-2.35,3.57-5.2,3.57-8.54c0-3.23-1.19-6.02-3.57-8.37
		C734.53,95.99,731.7,94.81,728.42,94.81z"/>
	<path class="st0" d="M783.89,110.9H765.1v22.07h-15.59v17.81h15.59v33.4c0,10.23,2.73,18.11,8.21,23.63
		c5.47,5.53,12.83,8.29,22.07,8.29c3.83,0,7.2-0.33,10.09-0.99V197.8c-1.69,0.44-3.72,0.66-6.07,0.66c-4.82,0-8.6-1.19-11.36-3.57
		c-2.76-2.38-4.15-6.06-4.15-11.04v-33.07h21.58v-17.81h-21.58V110.9z"/>
	<path class="st0" d="M877.35,177.45c0,6.45-1.84,11.62-5.54,15.51c-3.69,3.88-8.57,5.83-14.65,5.83c-6.02,0-10.86-1.94-14.53-5.83
		c-3.67-3.88-5.5-9.05-5.5-15.51v-44.48h-18.63v46.69c0,11.54,3.04,20.61,9.11,27.2c6.07,6.59,14.41,9.89,25.03,9.89
		c5.42,0,10.23-1.26,14.44-3.78c4.21-2.51,7.63-6.12,10.26-10.83v12.97h18.79v-82.14h-18.79V177.45z"/>
	<path class="st0" d="M978.91,147.41c-3.01-5.2-6.97-9.19-11.9-11.98c-4.92-2.79-10.64-4.18-17.15-4.18
		c-7.17,0-13.76,1.89-19.77,5.66c-6.02,3.77-10.78,8.94-14.28,15.51c-3.5,6.57-5.25,13.73-5.25,21.5c0,7.77,1.75,14.95,5.25,21.54
		s8.26,11.79,14.28,15.59c6.02,3.8,12.61,5.7,19.77,5.7c6.51,0,12.23-1.38,17.15-4.15c4.92-2.76,8.89-6.74,11.9-11.94v14.44h18.88
		V97.44h-18.88V147.41z M971.74,191.77c-4.79,4.79-10.74,7.18-17.85,7.18c-6.95,0-12.83-2.42-17.64-7.26
		c-4.82-4.84-7.22-10.76-7.22-17.77c0-6.89,2.41-12.76,7.22-17.6c4.81-4.84,10.69-7.26,17.64-7.26c7.11,0,13.06,2.38,17.85,7.14
		c4.79,4.76,7.18,10.67,7.18,17.73C978.91,181.03,976.52,186.98,971.74,191.77z"/>
	<path class="st0" d="M1094.37,172.28c0-7.82-1.81-14.89-5.42-21.21c-3.61-6.32-8.47-11.2-14.57-14.65
		c-6.1-3.45-12.82-5.17-20.15-5.17c-7.77,0-14.89,1.86-21.38,5.58c-6.48,3.72-11.6,8.82-15.35,15.3
		c-3.75,6.48-5.62,13.64-5.62,21.46c0,8.04,1.87,15.37,5.62,21.99s8.88,11.8,15.39,15.55c6.51,3.75,13.73,5.62,21.67,5.62
		c10.12,0,18.73-2.63,25.85-7.88c7.11-5.25,11.43-12.2,12.97-20.84h-18.79c-0.82,3.5-3.05,6.35-6.69,8.53
		c-3.64,2.19-7.97,3.28-13.01,3.28c-6.51,0-11.84-1.75-16-5.25c-4.16-3.5-6.84-8.31-8.04-14.44h63.02
		C1094.21,178.68,1094.37,176.05,1094.37,172.28z M1031.35,164.15c1.37-5.04,3.96-8.95,7.8-11.74c3.83-2.79,8.5-4.19,14.03-4.19
		c5.58,0,10.24,1.47,13.99,4.39c3.75,2.93,6.03,6.77,6.85,11.53H1031.35z"/>
	<path class="st0" d="M152.83,107.12c-0.61-0.78-1.26-1.21-2.04-1.21c-0.56,0.04-1.08,0.22-1.56,0.52
		c-5.77,4.51-13.62,23.64-20.08,48.88l5.73,0.04c11.28,0.13,22.94,0.26,34.44,0.43c-3.04-11.54-5.9-21.43-8.54-29.45
		C156.91,114.67,154.31,109.42,152.83,107.12z"/>
	<path class="st0" d="M165.63,58.5c-59.64,0-108,48.36-108,108c0,59.64,48.36,108,108,108s108-48.36,108-108
		C273.63,106.86,225.27,58.5,165.63,58.5z M245.35,165.2c-0.3,1.21-1.04,2.39-2.08,3.25c-0.13,0.09-0.26,0.17-0.39,0.26l-0.13,0.09
		l-0.26,0.17l-0.22,0.13c-0.82,0.43-1.74,0.65-2.69,0.65H188.4c0.39,1.69,0.87,3.64,1.34,5.73c2.82,12.1,10.24,44.28,18.17,44.28
		h0.17h0.09h0.17c6.16,0,9.33-8.93,16.27-28.5l0.09-0.22c1.13-3.12,2.39-6.68,3.73-10.45l0.35-0.95c0.52-1.26,1.95-1.91,3.21-1.39
		c0.91,0.35,1.56,1.26,1.56,2.26c0,0.26-0.04,0.48-0.09,0.69l-0.3,0.95c-0.74,2.34-1.47,5.51-2.39,9.2
		c-4.12,17.09-10.37,42.9-26.33,42.9h-0.13c-10.32-0.09-16.48-16.57-19.13-23.64c-4.94-13.19-8.67-27.2-12.27-40.81H125.9
		l-9.76,31.27l-0.13-0.13c-1.47,2.3-4.55,2.99-6.85,1.52c-1.43-0.91-2.3-2.47-2.3-4.16v-0.17l0.61-3.56
		c1.34-8.02,2.99-16.4,4.81-24.81H92.33l-0.09-0.09c-4.08-0.61-6.9-4.42-6.29-8.5c0.48-3.17,2.91-5.68,6.03-6.25
		c0.78-0.09,1.56-0.13,2.34-0.09h0.95c6.29,0.09,12.97,0.22,20.34,0.3c10.37-42.16,22.38-63.59,35.74-63.63
		c14.31,0,24.94,32.57,33.44,64.45l0.04,0.13c17.44,0.35,36.09,0.87,54.17,2.17l0.78,0.09c0.3,0,0.56,0.04,0.87,0.09h0.09l0.09,0.04
		h0.04C243.96,159.08,246,162.12,245.35,165.2z"/>
</g>
</svg>
